HIERARCHY
ROOT Hips
{
	OFFSET 0.000000 0.000000 0.000000
	CHANNELS 6 Xposition Yposition Zposition Zrotation Xrotation Yrotation
	JOINT LeftUpLeg
	{
		OFFSET 4.065250 -3.907320 0.417110
		CHANNELS 3 Zrotation Xrotation Yrotation
		JOINT LeftLeg
		{
			OFFSET 0.000230 -18.482100 0.003670
			CHANNELS 3 Zrotation Xrotation Yrotation
			JOINT LeftFoot
			{
				OFFSET -0.001720 -15.289800 -0.026290
				CHANNELS 3 Zrotation Xrotation Yrotation
				JOINT LeftToeBase
				{
					OFFSET 0.367430 -3.191310 5.542870
					CHANNELS 3 Zrotation Xrotation Yrotation
					JOINT LeftToeBase2
					{
						OFFSET 0.087510 0.048490 1.367580
						CHANNELS 3 Zrotation Xrotation Yrotation
						JOINT LeftToeBase3
						{
							OFFSET 0.074840 0.067850 1.167070
						}
					}
				}
			}
		}
	}
	JOINT RightUpLeg
	{
		OFFSET -4.065260 -3.907310 0.417120
		CHANNELS 3 Zrotation Xrotation Yrotation
		JOINT RightLeg
		{
			OFFSET -0.000290 -18.482100 0.004400
			CHANNELS 3 Zrotation Xrotation Yrotation
			JOINT RightFoot
			{
				OFFSET 0.001600 -15.289800 -0.025690
				CHANNELS 3 Zrotation Xrotation Yrotation
				JOINT RightToeBase
				{
					OFFSET -0.354200 -3.191090 5.543860
					CHANNELS 3 Zrotation Xrotation Yrotation
					JOINT RightToeBase2
					{
						OFFSET -0.084240 0.048540 1.367780
						CHANNELS 3 Zrotation Xrotation Yrotation
						JOINT RightToeBase3
						{
							OFFSET -0.072050 0.067900 1.167250
						}
					}
				}
			}
		}
	}
	JOINT Spine
	{
		OFFSET 0.000010 4.465170 -0.102240
		CHANNELS 3 Zrotation Xrotation Yrotation
		JOINT Spine1
		{
			OFFSET 0.000010 4.462120 -0.182400
			CHANNELS 3 Zrotation Xrotation Yrotation
			JOINT Spine2
			{
				OFFSET 0.000000 4.379370 -0.881000
				CHANNELS 3 Zrotation Xrotation Yrotation
				JOINT Spine3
				{
					OFFSET 0.000010 4.682860 0.214140
					CHANNELS 3 Zrotation Xrotation Yrotation
					JOINT Neck
					{
						OFFSET 0.000000 1.769640 0.824540
						CHANNELS 3 Zrotation Xrotation Yrotation
						JOINT Head
						{
							OFFSET 0.000000 1.696100 0.931450
							CHANNELS 3 Zrotation Xrotation Yrotation
							JOINT Head_End
							{
								OFFSET 0.000010 7.837500 1.526030
							}
						}
					}
					JOINT LeftShoulder
					{
						OFFSET 1.193810 -0.758810 -0.027680
						CHANNELS 3 Zrotation Xrotation Yrotation
						JOINT LeftArm
						{
							OFFSET 5.187790 -0.000020 0.000010
							CHANNELS 3 Zrotation Xrotation Yrotation
							JOINT LeftForeArm
							{
								OFFSET 12.736400 -0.000040 0.000020
								CHANNELS 3 Zrotation Xrotation Yrotation
								JOINT LeftHand
								{
									OFFSET 9.214520 -0.000020 0.000010
									CHANNELS 3 Zrotation Xrotation Yrotation
								}
							}
						}
					}
					JOINT RightShoulder
					{
						OFFSET -1.193810 -0.758810 -0.027670
						CHANNELS 3 Zrotation Xrotation Yrotation
						JOINT RightArm
						{
							OFFSET -5.187790 0.000010 -0.000010
							CHANNELS 3 Zrotation Xrotation Yrotation
							JOINT RightForeArm
							{
								OFFSET -12.736400 0.000030 -0.000020
								CHANNELS 3 Zrotation Xrotation Yrotation
								JOINT RightHand
								{
									OFFSET -9.214520 0.000020 -0.000010
									CHANNELS 3 Zrotation Xrotation Yrotation
								}
							}
						}
					}
				}
			}
		}
	}
}
MOTION
Frames: 12
Frame Time: 0.016667
-0.000004 35.834400 0.000004 1.057609 -7.041742 0.129669 7.349970 -33.171402 16.067301  -1.227540 42.727703 0.137463  6.820220 -2.063170 0.570710  0.000000 -0.000000 0.000000  -0.000000 0.000000 -0.000000   -19.780302 13.266501 10.393400  -27.645939 87.140900 26.559534  -6.899710 -10.235901 -15.225800  -0.000000 0.000000 0.000000  -0.000000 0.000000 -0.000000   1.769550 4.269350 3.619670  0.811525 2.672330 2.179760  0.757993 0.680685 2.256400  2.576990 -0.179299 4.023540  -15.560303 2.749660 13.331700  7.385149 -17.982599 11.004900   4.008500 1.963000 19.793100  -53.804104 6.698051 40.947605  14.500201 -22.648500 -110.070000  8.432239 -7.400441 -13.381401  -10.404100 -0.962969 10.180699  49.426300 33.514099 12.131701  -10.324800 -13.175900 99.442902  -2.523440 10.422701 -1.929860 
0.651280 35.522598 2.001855 3.044798 -8.169020 1.015228 3.731577 -31.784307 14.234904  -1.550339 49.392586 0.284678  8.542097 -8.218787 1.981057  0.000000 -0.000000 0.000000  -0.000000 0.000000 -0.000000   -21.303600 8.570901 10.195301  -165.844955 84.586922 164.686951  -8.697296 -13.471694 -13.389304  -0.000000 0.000000 0.000000  -0.000000 0.000000 -0.000000   1.097691 4.743989 3.109321  0.420913 3.017649 1.922910  0.380687 1.158019 1.945721  1.706012 0.770261 3.498271  -12.855205 1.716822 12.686001  6.637322 -18.746096 11.012101   2.027524 1.661371 16.842405  -50.429512 3.004045 36.622208  14.329502 -23.013100 -111.532997  11.679794 -5.980603 -13.913900  -7.876636 -0.257822 10.070500  52.127300 29.805510 12.635200  -10.481900 -12.222502 94.338020  -1.782371 12.897495 0.075630 
1.274481 35.316601 3.926558 4.817467 -9.172250 2.143629 0.390617 -29.480818 12.179210  -1.905039 55.094276 0.524393  8.402520 -16.271368 3.619124  0.000000 -0.000000 0.000000  -0.000000 0.000000 -0.000000   -22.179096 3.391129 9.749352  -173.347992 78.687424 172.169983  -8.725730 -17.097288 -10.106411  -0.000000 0.000000 0.000000  -0.000000 0.000000 -0.000000   0.691574 5.134119 2.631832  0.092287 3.367879 1.687471  -0.001598 1.726948 1.661351  0.681979 1.981636 3.024142  -10.460710 0.111404 11.832002  4.989477 -19.395399 10.776103   -0.274751 1.293531 13.586315  -47.443214 -0.409261 31.129225  14.356801 -22.956400 -111.304008  14.370193 -3.089921 -14.863794  -5.202960 0.572070 9.995631  55.156895 25.859016 12.933700  -10.554701 -11.071706 88.268234  -3.671983 14.585694 2.338411 
1.868724 35.265800 5.811085 6.068858 -10.000297 3.277258 -2.360115 -26.494720 10.548612  -2.149918 58.271976 0.741310  8.627347 -21.169373 4.496685  0.000000 -0.000000 0.000000  -0.000000 0.000000 -0.000000   -22.192400 -2.185068 9.190713  -174.900986 75.389130 173.760986  -5.369690 -20.773981 -4.716053  -0.000000 0.000000 0.000000  -0.000000 0.000000 -0.000000   0.603084 5.425919 2.203652  -0.088052 3.693368 1.462601  -0.264346 2.326007 1.409931  -0.172417 3.325302 2.602932  -10.821400 -1.518081 11.492102  2.121526 -19.907997 10.437002   -2.617087 0.957897 10.366320  -45.507416 -2.772416 24.599138  14.616696 -22.383305 -109.019012  15.836392 2.735536 -16.600691  -2.895764 1.339676 10.307097  58.078888 22.197121 13.197598  -10.460901 -9.552408 80.288742  -12.205751 11.632118 4.072021 
2.445211 35.339298 7.666605 6.932288 -10.723195 4.423854 -4.533504 -22.870426 9.258960  -2.285669 59.820496 0.910517  8.738892 -24.906675 5.011617  0.000000 -0.000000 0.000000  -0.000000 0.000000 -0.000000   -21.352108 -7.840128 8.302567  -175.205994 74.504417 174.095993  -0.809488 -23.819876 0.275187  -0.000000 0.000000 0.000000  -0.000000 0.000000 -0.000000   0.690400 5.684768 1.794523  -0.177790 3.988827 1.234742  -0.436273 2.882766 1.169712  -0.851890 4.587370 2.194853  -11.685695 -2.396183 11.453601  -0.737528 -20.029802 10.220602   -4.638484 0.688023 7.309264  -44.273109 -3.935201 17.956152  14.992701 -21.407007 -105.234032  16.622896 7.540883 -17.088297  -0.982323 1.996365 10.709997  60.659084 19.259819 13.056699  -10.168002 -8.106510 72.587372  -21.723827 6.589067 2.621684 
3.012483 35.523899 9.514523 7.440049 -11.441789 5.517752 -6.110066 -18.599838 8.460278  -2.300210 59.981106 1.007229  9.345744 -27.855972 5.290108  0.000000 -0.000000 0.000000  -0.000000 0.000000 -0.000000   -19.583815 -13.203550 6.770954  -174.619003 76.122185 173.468994  2.179972 -25.573385 2.084472  -0.000000 0.000000 0.000000  -0.000000 0.000000 -0.000000   0.792340 6.026727 1.378084  -0.201919 4.251688 0.987350  -0.492707 3.295176 0.922857  -1.199567 5.466852 1.760314  -11.405103 -0.872553 11.821198  -2.304725 -19.322409 10.501096   -5.785140 0.568601 4.646865  -43.832409 -3.071288 11.900757  15.416995 -19.925114 -99.688148  17.134796 7.082504 -13.328433  0.264913 2.408446 11.087097  62.481789 17.707018 12.187610  -9.819746 -7.048321 66.788071  -27.196438 -0.880490 -8.240975 
3.572177 35.790497 11.371097 7.695742 -12.003616 6.593436 -7.247159 -14.148751 7.940287  -2.234670 59.262905 1.060340  9.926804 -29.851379 5.254671  0.000000 -0.000000 0.000000  -0.000000 0.000000 -0.000000   -17.372324 -18.068142 4.945421  -172.268051 80.227051 171.052048  3.666682 -26.568287 1.073162  -0.000000 0.000000 0.000000  -0.000000 0.000000 -0.000000   0.881214 6.301417 0.951420  -0.190049 4.451018 0.718059  -0.490780 3.597807 0.661291  -1.383558 6.101923 1.290525  -10.699807 0.955803 12.354795  -3.064801 -18.320110 10.998494   -6.292305 0.552501 2.411006  -43.820004 -0.958425 6.689510  15.674495 -18.492014 -94.490952  16.974501 3.636450 -8.686214  1.117290 2.654547 11.252698  63.689594 17.396805 10.633019  -9.577993 -6.471416 63.536140  -29.832764 -8.297256 -17.667187 
4.136337 36.115295 13.257710 7.747759 -12.289857 7.680210 -8.001300 -9.949888 7.540914  -2.145772 58.236320 1.099100  10.244796 -30.815388 4.913005  0.000000 -0.000000 0.000000  -0.000000 0.000000 -0.000000   -14.772837 -22.122440 2.943737  -155.881607 86.753624 154.609604  2.316339 -26.977596 -4.255577  -0.000000 0.000000 0.000000  -0.000000 0.000000 -0.000000   0.896875 6.401730 0.480583  -0.171573 4.551108 0.412178  -0.464258 3.776517 0.365657  -1.484449 6.492705 0.752505  -9.656755 1.150517 12.764695  -2.814934 -17.289513 11.523693   -6.129303 0.633032 0.730971  -43.832901 2.105388 3.109160  15.752302 -17.752611 -91.854019  15.693015 -3.596490 -5.138668  1.740361 2.753958 10.923204  64.156891 18.598988 8.176965  -9.680670 -6.705359 64.863991  -28.099527 -12.578742 -15.068739 
4.709021 36.478798 15.191958 7.687870 -12.315351 8.768435 -8.494293 -5.963561 7.216856  -2.036392 56.883724 1.100120  10.310599 -30.811098 4.244220  0.000000 -0.000000 0.000000  -0.000000 0.000000 -0.000000   -12.335837 -25.098156 1.093368  -12.270464 83.775429 11.011063  0.654384 -26.589510 -10.686102  -0.000000 0.000000 0.000000  -0.000000 0.000000 -0.000000   0.884085 6.280161 -0.024240  -0.151555 4.545869 0.090276  -0.434642 3.856919 0.054077  -1.579358 6.733526 0.184616  -8.332300 0.931639 13.212293  -2.301058 -16.589611 12.174089   -5.577689 0.762555 -0.456065  -44.021393 5.750715 0.785458  15.771600 -17.483109 -90.898407  13.598632 -9.157704 -3.569852  2.179373 2.751290 10.274110  64.274399 20.701870 5.179277  -9.919048 -7.315703 68.271469  -23.975264 -12.931597 -9.074110 
5.296020 36.867592 17.186705 7.540126 -12.011546 9.844584 -8.761466 -2.336992 6.822996  -1.919322 55.316425 1.059251  10.113605 -29.884819 3.260458  0.000000 -0.000000 0.000000  -0.000000 0.000000 -0.000000   -10.374334 -26.634974 -0.066715  -4.148828 72.233994 2.978136  1.397187 -25.583317 -15.581016  -0.000000 0.000000 0.000000  -0.000000 0.000000 -0.000000   0.913487 5.829728 -0.570720  -0.135152 4.411113 -0.240008  -0.433730 3.860480 -0.268549  -1.794416 6.923337 -0.397657  -6.780076 0.870723 13.794191  -2.228422 -16.873196 13.027487   -4.882162 0.893540 -1.178208  -44.369797 9.450078 -0.175060  15.753100 -17.742792 -91.819183  10.858945 -5.815158 -6.431323  2.583903 2.693421 9.350947  64.302399 23.327953 1.939274  -10.135098 -7.988730 71.950447  -19.431574 -5.717186 -4.486252 
5.893024 37.249992 19.241175 7.471753 -11.518700 10.904757 -8.932219 1.008157 6.455837  -1.807232 53.688534 0.990986  9.626127 -27.909536 1.979014  0.000000 -0.000000 0.000000  -0.000000 0.000000 -0.000000   -8.958938 -27.241690 -0.690341  -2.262091 59.574020 1.212479  3.584239 -23.979731 -18.476049  -0.000000 0.000000 0.000000  -0.000000 0.000000 -0.000000   0.885181 5.160063 -1.115310  -0.152158 4.186485 -0.554728  -0.460948 3.807371 -0.581092  -2.048395 7.072008 -0.956301  -5.173360 0.956125 14.438789  -2.410977 -17.498388 13.970982   -4.154684 1.016258 -1.410656  -44.946190 13.206230 -0.173281  15.701102 -18.275391 -93.715775  8.111547 0.345948 -10.703924  2.791987 2.588882 8.261251  64.490509 26.071751 -1.534104  -10.316699 -8.717678 75.865631  -14.281488 3.541793 -0.646101 
6.492627 37.592892 21.369247 7.747869 -10.930978 11.954337 -9.284771 4.106253 6.199795  -1.710532 52.173634 0.907559  9.069001 -24.762869 0.574709  0.000000 -0.000000 0.000000  -0.000000 0.000000 -0.000000   -8.595919 -27.075201 -0.655008  -1.408523 46.677067 0.485329  7.427880 -21.365660 -17.710815  -0.000000 0.000000 0.000000  -0.000000 0.000000 -0.000000   0.643686 4.315318 -1.608950  -0.251330 3.895147 -0.834555  -0.539579 3.728501 -0.870058  -2.313874 7.246457 -1.463779  -3.624523 1.429709 15.110386  -3.091766 -18.111387 14.917380   -3.623322 1.097409 -1.124926  -45.860680 16.807024 0.465408  15.621901 -18.860687 -95.815964  5.732658 5.707764 -14.092130  2.713142 2.456083 7.120315  65.184891 28.426554 -5.056526  -10.431698 -9.347847 79.209137  -8.166599 10.602649 0.943298 
